<?xml version="1.0" standalone="no"?>
<!DOCTYPE svg PUBLIC "-//W3C//DTD SVG 20010904//EN"
 "http://www.w3.org/TR/2001/REC-SVG-20010904/DTD/svg10.dtd">
<svg version="1.0" xmlns="http://www.w3.org/2000/svg"
 width="3333.000000pt" height="3333.000000pt" viewBox="0 0 3333.000000 3333.000000"
 preserveAspectRatio="xMidYMid meet">
<metadata>
Created by potrace 1.11, written by Peter Selinger 2001-2013
</metadata>
<g transform="translate(0.000000,3333.000000) scale(0.100000,-0.100000)"
fill="#000000" stroke="none">
<path d="M16888 27168 c-9 -7 -105 -148 -213 -313 -108 -165 -210 -319 -226
-343 -16 -23 -29 -47 -29 -52 0 -6 -4 -10 -10 -10 -5 0 -10 -4 -10 -10 0 -5
-18 -35 -39 -67 -21 -32 -95 -146 -163 -253 -69 -107 -138 -215 -154 -240 -16
-25 -33 -53 -39 -62 -11 -20 -470 -756 -526 -846 -79 -124 -332 -544 -521
-862 -109 -184 -202 -342 -208 -350 -5 -8 -22 -37 -38 -65 -47 -83 -161 -279
-171 -295 -5 -8 -115 -199 -244 -425 -216 -377 -275 -482 -360 -635 -16 -30
-47 -84 -67 -120 -20 -36 -53 -94 -72 -130 -58 -106 -89 -163 -108 -195 -10
-16 -37 -66 -60 -110 -24 -44 -52 -96 -63 -115 -11 -19 -40 -73 -65 -120 -25
-47 -56 -103 -68 -125 -12 -22 -35 -65 -51 -95 -16 -30 -51 -95 -78 -145 -184
-342 -237 -484 -236 -638 1 -134 29 -193 142 -302 310 -297 580 -578 769 -800
56 -66 112 -131 124 -145 92 -107 356 -453 447 -585 19 -27 36 -52 39 -55 13
-13 156 -230 242 -365 108 -171 253 -419 322 -547 25 -49 66 -125 90 -170 24
-46 58 -112 76 -147 l31 -63 71 73 c38 41 159 166 268 279 108 113 225 234
259 270 34 36 96 100 138 142 l75 77 -85 128 c-99 149 -165 264 -219 383 -47
101 -110 282 -129 365 -7 33 -13 62 -14 65 -1 3 -5 32 -9 65 -4 32 -10 68 -12
80 -6 30 -5 223 2 280 5 44 23 142 39 213 19 84 86 228 149 322 146 219 348
350 641 416 62 14 319 13 393 -1 345 -68 638 -295 820 -636 55 -103 115 -278
129 -379 3 -19 9 -55 14 -80 8 -45 6 -347 -4 -385 -2 -11 -8 -40 -12 -65 -28
-184 -137 -452 -260 -640 -23 -36 -46 -80 -50 -99 -15 -69 30 -166 138 -300
62 -78 198 -242 207 -251 3 -3 41 -45 85 -95 44 -49 130 -141 191 -204 l111
-114 65 114 c36 63 84 143 106 179 23 36 53 85 68 110 37 61 259 397 324 489
136 193 408 552 475 625 6 6 28 33 50 61 55 68 169 202 310 361 60 69 306 323
491 508 219 219 284 298 321 383 50 117 51 248 4 390 -40 119 -147 349 -504
1088 -109 227 -632 1270 -714 1425 -28 52 -84 161 -126 241 -41 80 -93 179
-115 220 -21 41 -63 119 -92 174 -29 55 -67 127 -85 160 -18 33 -81 150 -140
260 -60 110 -117 216 -128 235 -11 19 -38 69 -60 110 -41 75 -344 620 -387
695 -13 22 -37 65 -53 95 -17 30 -48 83 -69 118 -21 34 -38 65 -38 68 0 4 -22
43 -50 89 -27 46 -50 86 -50 90 0 4 -8 19 -19 33 -10 15 -29 45 -41 67 -54 96
-316 541 -459 780 -86 143 -158 265 -161 271 -23 49 -286 464 -295 464 -6 0
-18 -6 -27 -12z"/>
<path d="M7860 21975 c7 -8 17 -15 23 -15 5 0 25 -11 43 -25 18 -14 35 -25 38
-25 16 0 408 -263 566 -379 311 -230 603 -483 900 -781 274 -274 429 -449 641
-721 105 -135 145 -189 262 -354 35 -50 211 -320 254 -390 158 -258 370 -670
482 -935 34 -80 66 -154 71 -165 18 -42 100 -259 100 -266 0 -4 5 -20 12 -36
6 -15 12 -30 13 -33 0 -3 15 -48 32 -100 106 -318 187 -646 257 -1045 14 -77
28 -153 31 -170 14 -74 70 -230 104 -286 88 -146 178 -202 423 -264 173 -44
534 -153 583 -175 11 -5 72 -28 135 -51 237 -86 658 -277 850 -386 19 -11 62
-35 95 -53 96 -52 221 -128 344 -208 126 -81 192 -107 259 -99 67 7 71 16 77
153 2 67 7 141 10 165 2 24 7 67 10 94 3 28 7 62 10 78 3 15 9 55 15 90 48
287 151 588 309 905 70 139 91 194 105 278 39 220 -23 398 -291 844 -238 396
-464 723 -733 1060 -87 109 -85 107 -216 260 -179 210 -227 262 -474 510 -242
243 -293 292 -439 420 -41 36 -79 70 -85 75 -9 9 -209 174 -281 233 -121 99
-444 332 -660 475 -72 48 -350 218 -415 254 -30 17 -93 52 -140 78 -134 75
-481 247 -635 314 -77 34 -149 66 -160 71 -37 18 -359 142 -445 172 -194 67
-359 119 -537 167 -103 29 -201 56 -218 61 -16 5 -41 11 -55 14 -14 2 -63 13
-110 24 -47 12 -155 35 -240 51 -135 27 -196 37 -380 65 -142 22 -296 39 -460
51 -36 3 -71 8 -79 10 -11 5 -12 3 -1 -10z"/>
<path d="M25187 21434 c-1 -1 -51 -5 -112 -8 -60 -4 -123 -8 -140 -10 -16 -2
-61 -7 -100 -11 -38 -3 -81 -8 -95 -10 -14 -2 -45 -6 -70 -10 -48 -6 -116 -16
-140 -20 -8 -2 -37 -6 -64 -9 -27 -4 -52 -9 -55 -10 -3 -2 -28 -7 -56 -10 -48
-7 -219 -43 -410 -87 -200 -47 -612 -176 -812 -255 -61 -24 -114 -44 -117 -44
-4 0 -25 -9 -49 -19 -23 -11 -87 -38 -142 -61 -244 -102 -634 -303 -913 -472
-374 -226 -773 -520 -1126 -832 -233 -205 -549 -521 -741 -741 -39 -44 -72
-82 -75 -85 -20 -18 -230 -274 -300 -365 -47 -60 -88 -114 -93 -120 -4 -5 -26
-35 -48 -65 -22 -30 -47 -64 -55 -75 -59 -79 -212 -302 -293 -429 -92 -143
-241 -384 -241 -391 0 -2 -18 -33 -40 -69 -22 -36 -40 -68 -40 -71 0 -3 -12
-24 -26 -46 -45 -72 -141 -271 -165 -344 -17 -51 -23 -93 -23 -155 l0 -86 76
-159 c112 -234 204 -477 254 -670 9 -33 18 -67 20 -75 33 -128 78 -375 90
-500 2 -25 6 -63 9 -85 2 -22 5 -66 6 -97 l2 -57 41 23 c507 290 985 510 1485
683 270 93 587 187 791 233 208 48 300 89 349 159 48 67 54 90 147 526 2 11
15 65 30 120 14 55 30 118 35 140 44 178 213 681 281 835 6 14 14 34 19 45
200 503 507 1067 833 1533 405 579 895 1114 1411 1541 55 46 111 92 124 104
140 117 544 401 766 536 66 41 122 75 125 78 3 2 -75 3 -173 2 -97 -1 -178 -3
-180 -5z"/>
<path d="M16575 20156 c-101 -28 -142 -46 -208 -90 -148 -100 -259 -253 -303
-421 -22 -84 -25 -300 -5 -385 38 -161 102 -332 202 -534 69 -141 113 -200
187 -250 73 -48 134 -56 247 -30 84 19 208 6 324 -35 113 -40 174 -32 238 28
24 23 73 93 90 131 42 89 90 211 98 250 1 3 9 30 18 60 54 175 73 372 54 549
-26 242 -163 489 -341 616 -128 91 -235 126 -401 130 -101 3 -133 0 -200 -19z"/>
<path d="M8227 18093 c-3 -5 38 -62 90 -128 125 -160 321 -456 420 -635 217
-394 350 -727 473 -1186 130 -486 185 -627 320 -819 52 -75 170 -226 190 -245
6 -6 55 -63 125 -145 28 -32 55 -63 60 -69 29 -30 203 -255 276 -356 103 -142
268 -391 324 -488 6 -9 41 -71 79 -136 89 -155 209 -390 277 -541 109 -245
170 -336 272 -411 93 -69 190 -96 362 -99 173 -4 272 9 303 37 28 27 28 36 -4
144 -14 49 -27 96 -29 104 -2 8 -29 101 -60 205 -31 105 -60 204 -65 220 -46
175 -208 701 -261 850 -78 214 -194 468 -300 655 -66 117 -270 413 -309 450
-3 3 -16 19 -29 35 -53 70 -216 241 -333 351 -123 116 -456 372 -508 392 -8 3
-26 14 -40 25 l-25 19 55 -6 c30 -4 81 -9 113 -11 133 -11 164 -14 197 -19 19
-3 71 -8 115 -11 44 -3 91 -8 105 -10 14 -2 61 -7 105 -10 44 -4 91 -9 105
-10 14 -1 63 -6 110 -10 47 -4 94 -9 105 -11 45 -9 152 -7 185 5 67 22 89 86
63 176 -27 92 -188 390 -252 467 -6 7 -41 51 -78 98 -423 534 -1128 919 -1933
1054 -19 3 -44 8 -56 10 -12 2 -45 7 -74 11 -29 4 -60 8 -69 10 -9 1 -45 6
-81 10 -36 4 -72 8 -80 10 -8 1 -62 6 -120 10 -58 4 -108 9 -112 11 -4 2 -9 1
-11 -3z"/>
<path d="M16800 17893 c-141 -17 -245 -59 -373 -152 -86 -62 -231 -200 -327
-311 -30 -35 -60 -68 -66 -74 -54 -55 -297 -372 -376 -491 -186 -278 -283
-516 -323 -790 -7 -48 -8 -239 -1 -275 5 -26 15 -90 20 -125 39 -269 357 -973
618 -1368 21 -32 38 -61 38 -63 0 -3 5 -10 10 -17 6 -7 52 -70 102 -142 74
-105 274 -364 297 -385 4 -3 44 -48 90 -100 213 -239 617 -611 724 -667 77
-40 205 9 321 122 137 133 477 557 618 770 116 176 229 386 274 509 65 177
100 301 120 426 3 19 8 46 11 60 9 43 11 332 3 385 -4 28 -11 70 -14 95 -6 44
-41 179 -49 187 -2 2 -19 -27 -37 -64 -102 -208 -268 -422 -415 -534 -16 -13
-32 -26 -35 -30 -12 -16 -191 -118 -250 -142 -146 -60 -212 -72 -390 -71 -150
0 -173 3 -254 28 -320 97 -512 310 -586 649 -19 89 -24 151 -24 302 -1 283 31
439 103 515 32 34 41 38 71 33 75 -11 133 -64 176 -158 23 -50 28 -74 28 -145
1 -80 -6 -163 -19 -220 -14 -60 -14 -217 -1 -267 76 -289 349 -448 639 -374
233 60 453 243 596 495 61 106 111 231 127 316 3 14 9 43 14 65 15 66 6 203
-18 268 -19 54 -81 169 -135 251 -12 19 -42 67 -67 107 -51 84 -422 638 -478
715 -20 28 -63 88 -95 134 -32 45 -65 89 -72 98 -8 9 -42 55 -77 102 -84 116
-209 238 -283 277 -78 41 -172 63 -235 56z"/>
<path d="M25207 17744 c-1 -1 -40 -5 -87 -8 -120 -9 -211 -18 -355 -36 -44 -6
-98 -13 -120 -16 -61 -8 -367 -64 -390 -71 -11 -4 -24 -8 -30 -9 -119 -26
-291 -77 -440 -132 -286 -105 -570 -263 -789 -440 -155 -124 -344 -331 -451
-492 -50 -76 -53 -81 -104 -181 -86 -166 -107 -257 -75 -321 32 -63 73 -69
299 -43 72 8 153 17 180 20 62 7 106 12 170 20 28 3 77 8 110 11 33 2 71 6 85
9 14 2 54 7 90 10 36 3 76 8 90 10 14 2 54 7 90 10 36 3 78 8 93 11 l29 5 -20
-28 c-58 -81 -179 -178 -433 -346 -96 -65 -184 -125 -195 -135 -11 -9 -42 -35
-69 -57 -48 -39 -209 -197 -250 -246 -266 -319 -450 -655 -655 -1199 -92 -243
-430 -1269 -432 -1309 -1 -28 5 -40 33 -63 139 -118 375 -110 571 19 138 91
246 239 408 563 130 260 224 426 356 626 73 112 221 323 234 334 3 3 35 43 72
90 109 141 266 319 458 519 226 236 343 423 435 696 26 75 48 142 49 149 2 6
9 31 16 56 7 25 14 50 15 55 2 6 13 43 25 84 12 41 23 81 25 90 2 9 20 63 40
121 20 58 40 117 45 131 36 117 200 470 287 617 24 41 43 75 43 78 0 4 58 95
129 204 95 147 290 395 410 523 31 32 54 62 51 65 -5 6 -38 11 -43 6z"/>
<path d="M6288 15795 c-2 -1 -55 -5 -118 -9 -63 -4 -128 -8 -145 -10 -16 -2
-61 -7 -98 -11 -37 -3 -76 -8 -85 -10 -9 -1 -42 -6 -72 -10 -229 -29 -568
-103 -830 -181 -108 -33 -388 -131 -455 -159 -291 -125 -656 -307 -642 -321 2
-2 25 -6 53 -9 27 -2 60 -7 74 -9 14 -3 68 -12 120 -21 254 -43 581 -142 840
-255 418 -183 813 -453 1141 -780 283 -283 406 -449 699 -944 213 -362 365
-541 569 -670 93 -59 197 -104 283 -122 116 -24 308 -22 432 6 22 5 55 11 71
14 50 9 64 13 225 51 85 20 182 43 215 50 59 14 186 43 215 50 8 2 114 26 235
55 121 28 279 65 350 81 72 17 137 32 145 34 8 2 53 13 100 23 47 11 128 30
180 42 52 12 104 23 115 26 11 2 108 25 215 50 107 25 206 48 220 50 28 5 73
20 107 37 27 12 44 59 39 110 -4 41 -61 160 -204 427 -313 584 -749 1211
-1063 1530 -246 250 -489 408 -841 550 -202 81 -532 180 -753 224 -16 4 -41 9
-55 12 -37 8 -51 10 -225 38 -149 23 -192 29 -335 41 -30 3 -80 8 -110 11 -55
5 -606 14 -612 9z"/>
<path d="M11476 15533 c45 -76 184 -354 184 -368 0 -4 7 -22 15 -41 36 -82 46
-106 88 -224 48 -133 129 -391 247 -790 91 -307 175 -556 247 -729 58 -139
151 -332 176 -365 13 -18 14 -18 21 10 4 16 7 30 7 31 -2 11 93 173 134 228
203 273 568 470 950 513 122 13 390 6 525 -14 119 -18 312 -63 470 -110 101
-31 328 -110 352 -124 18 -10 48 -14 48 -5 0 2 -25 48 -56 102 -60 103 -117
188 -193 288 -212 278 -549 573 -901 790 -52 32 -106 66 -120 74 -134 85 -492
263 -725 360 -55 23 -109 46 -120 51 -79 37 -613 221 -678 234 -12 3 -65 17
-117 31 -163 45 -438 109 -563 130 l-37 6 46 -78z"/>
<path d="M14992 15505 c-34 -129 -42 -168 -49 -240 -44 -482 97 -959 462
-1564 43 -70 81 -130 244 -381 240 -368 351 -555 458 -767 97 -192 109 -204
208 -204 91 0 110 6 310 101 344 164 337 159 329 183 -20 65 -46 95 -209 236
-133 115 -437 417 -530 526 -33 38 -66 77 -74 85 -40 41 -248 309 -322 415
-184 262 -313 476 -467 780 -117 232 -233 512 -312 755 l-38 115 -10 -40z"/>
<path d="M21840 15399 c-156 -33 -398 -94 -550 -139 -58 -17 -112 -33 -120
-34 -123 -29 -781 -256 -915 -316 -22 -10 -74 -33 -115 -50 -78 -34 -317 -151
-383 -188 -513 -292 -889 -648 -1121 -1060 -20 -35 -36 -66 -36 -68 0 -2 27 9
59 25 214 108 552 215 806 255 159 25 165 25 270 33 183 13 332 8 463 -14 289
-48 483 -175 652 -423 22 -32 40 -63 40 -68 0 -5 8 -20 18 -33 10 -13 40 -71
67 -129 26 -58 59 -130 73 -160 l25 -55 13 40 c7 22 29 96 49 165 78 264 313
944 365 1055 5 11 21 52 35 90 15 39 30 79 35 90 5 11 26 61 46 110 20 50 44
108 54 130 10 22 62 139 115 260 54 121 130 286 170 368 85 173 96 161 -115
116z"/>
<path d="M26588 15405 c-1 -1 -91 -5 -198 -8 -222 -7 -410 -23 -595 -52 -16
-3 -46 -7 -65 -10 -75 -10 -200 -35 -310 -60 -63 -14 -124 -28 -136 -31 -78
-15 -351 -112 -469 -165 -27 -12 -52 -23 -55 -24 -3 0 -41 -20 -85 -43 -259
-136 -416 -253 -651 -487 -174 -172 -277 -292 -437 -505 -151 -201 -419 -608
-474 -720 -7 -14 -17 -32 -23 -40 -52 -75 -257 -483 -266 -529 -9 -43 2 -78
29 -92 18 -11 188 -60 251 -74 10 -3 33 -9 51 -15 18 -6 41 -12 51 -15 28 -6
152 -38 294 -78 236 -65 695 -189 713 -193 10 -1 32 -8 50 -13 18 -6 66 -20
107 -31 82 -22 369 -100 385 -104 6 -1 30 -8 55 -15 163 -45 490 -132 511
-136 13 -3 49 -10 79 -16 235 -49 475 17 675 184 140 118 244 250 420 532 100
161 159 251 255 389 19 28 73 99 80 106 3 3 39 46 80 95 82 98 304 324 390
395 29 25 70 59 89 76 20 17 72 57 116 90 441 330 896 548 1407 674 86 21 176
42 200 45 23 4 45 8 48 10 3 2 33 7 65 10 33 4 62 9 65 10 6 3 145 18 178 19
12 0 22 3 22 7 0 4 -35 27 -77 52 -299 171 -597 310 -907 421 -176 64 -507
163 -596 179 -14 3 -63 14 -110 25 -47 11 -101 23 -120 26 -19 3 -71 13 -115
21 -44 8 -132 22 -195 30 -63 9 -128 17 -145 19 -35 5 -133 14 -220 21 -33 3
-134 8 -225 11 -91 3 -170 7 -177 9 -6 2 -13 2 -15 0z"/>
<path d="M19808 13515 c-2 -1 -39 -5 -83 -9 -87 -7 -94 -8 -240 -37 -96 -19
-289 -71 -330 -88 -11 -5 -87 -32 -170 -61 -337 -117 -586 -226 -730 -321
-114 -74 -231 -196 -277 -290 -65 -129 -65 -129 162 -232 334 -151 796 -312
1080 -377 322 -73 362 -81 497 -97 72 -9 274 -9 330 0 180 28 318 94 434 208
113 112 203 278 226 420 10 56 10 222 0 271 -56 294 -325 554 -622 604 -38 6
-271 14 -277 9z"/>
<path d="M13788 13445 c-2 -1 -50 -5 -108 -8 -387 -23 -683 -160 -815 -376
-91 -150 -105 -354 -40 -546 75 -218 237 -401 452 -508 112 -56 275 -109 382
-123 25 -3 48 -8 51 -9 15 -9 211 -19 355 -19 200 0 468 17 605 39 14 2 48 6
75 10 198 25 565 102 784 166 208 61 222 81 152 225 -180 373 -526 715 -928
918 -186 93 -435 174 -623 202 -19 3 -46 7 -60 10 -14 2 -68 7 -120 10 -52 3
-110 7 -127 8 -18 2 -34 2 -35 1z"/>
<path d="M11237 12364 c-1 -1 -67 -5 -147 -8 -80 -4 -158 -9 -175 -11 -16 -2
-64 -6 -105 -9 -84 -7 -133 -13 -235 -26 -38 -5 -90 -12 -115 -15 -56 -8 -72
-10 -190 -30 -52 -9 -108 -18 -125 -21 -16 -2 -64 -11 -105 -19 -41 -9 -84
-17 -95 -19 -86 -17 -379 -82 -460 -102 -55 -14 -109 -28 -120 -30 -11 -2 -78
-20 -150 -39 -71 -20 -139 -38 -150 -40 -11 -3 -105 -30 -210 -60 -104 -31
-197 -58 -206 -60 -28 -6 -300 -88 -549 -166 -91 -28 -185 -57 -210 -64 -25
-7 -151 -46 -280 -85 -237 -72 -592 -178 -620 -185 -8 -2 -55 -14 -105 -28
-181 -51 -503 -134 -555 -143 -14 -3 -33 -7 -42 -10 -9 -3 -25 -6 -35 -8 -10
-2 -36 -9 -58 -14 -35 -10 -291 -62 -370 -76 -16 -3 -41 -8 -55 -11 -89 -16
-212 -36 -250 -41 -25 -3 -72 -9 -105 -14 -33 -5 -82 -12 -110 -15 -27 -3 -63
-8 -80 -10 -191 -24 -479 -39 -762 -38 l-242 1 88 -67 c48 -37 109 -83 136
-102 26 -19 75 -54 109 -77 211 -151 615 -405 821 -517 39 -21 93 -50 120 -65
143 -79 422 -214 635 -306 69 -30 134 -59 145 -64 25 -11 193 -77 300 -118
210 -80 431 -153 670 -222 184 -52 523 -138 615 -155 14 -3 36 -7 50 -10 87
-19 304 -59 415 -76 72 -11 141 -22 155 -24 14 -2 52 -7 85 -11 33 -3 62 -8
65 -9 3 -2 43 -6 89 -10 46 -4 93 -9 105 -11 11 -3 84 -7 161 -10 230 -7 290
19 470 204 564 580 784 776 1325 1176 79 59 496 336 505 336 3 0 33 18 65 40
32 22 62 40 65 40 4 0 19 8 33 19 15 10 52 32 82 48 30 17 105 57 165 90 162
89 573 293 591 293 2 0 34 14 71 31 83 38 409 169 421 169 5 0 16 8 26 18 24
28 11 71 -50 159 -136 199 -325 362 -539 467 -88 43 -243 100 -304 111 -14 3
-37 7 -51 10 -42 9 -151 24 -225 30 -62 6 -392 13 -398 9z"/>
<path d="M17095 12282 c-6 -5 -26 -15 -45 -22 -19 -8 -66 -28 -105 -46 -194
-88 -392 -177 -413 -185 -12 -5 -28 -20 -34 -34 -19 -43 6 -108 90 -235 73
-108 80 -115 111 -115 33 0 36 4 147 190 62 105 119 199 126 210 6 11 41 67
76 125 35 58 66 108 69 113 6 10 -11 9 -22 -1z"/>
<path d="M17663 12202 c-29 -29 -209 -318 -308 -493 -9 -15 -56 -98 -138 -239
-12 -19 -45 -78 -74 -130 l-53 -94 28 -23 c66 -56 179 -88 338 -98 98 -6 410
-6 490 -1 143 11 211 17 234 21 14 2 48 7 75 10 53 6 167 23 200 30 40 8 171
35 190 39 11 2 40 9 65 16 25 7 54 14 65 16 52 10 277 80 383 119 279 102 533
223 550 260 6 13 8 26 4 29 -9 5 -63 13 -151 21 -147 14 -269 36 -493 90 -247
58 -618 192 -1163 419 -145 60 -189 62 -242 8z"/>
<path d="M21745 12188 c-117 -11 -179 -19 -195 -23 -8 -2 -31 -6 -50 -9 -129
-20 -314 -79 -443 -140 -68 -33 -160 -82 -182 -98 -134 -98 -185 -141 -251
-211 -74 -79 -161 -193 -153 -201 2 -2 78 -37 169 -77 159 -70 505 -240 640
-315 126 -69 245 -138 270 -154 14 -10 41 -26 60 -37 188 -103 649 -424 935
-652 421 -334 932 -833 1225 -1195 45 -57 140 -152 180 -181 25 -18 72 -42
105 -54 54 -18 77 -20 240 -15 99 2 194 6 210 8 17 3 68 7 115 11 47 3 99 8
115 10 17 2 62 7 100 10 39 3 99 10 135 15 36 5 88 12 115 16 28 3 57 8 66 9
9 2 40 6 70 10 30 3 70 10 89 15 19 5 53 11 75 14 22 3 54 8 70 11 40 7 134
25 165 31 420 81 955 234 1410 404 243 91 569 229 597 252 7 6 13 8 13 4 0 -6
449 218 560 280 168 93 347 199 475 280 143 91 385 253 385 259 0 1 -30 2 -67
2 -82 1 -333 12 -388 18 -22 2 -67 7 -100 10 -33 3 -76 7 -95 10 -19 2 -57 7
-85 10 -68 9 -98 13 -148 21 -71 10 -80 12 -137 19 -30 4 -58 9 -61 11 -4 2
-24 6 -45 9 -22 3 -50 8 -64 11 -14 3 -36 8 -50 10 -151 27 -519 114 -730 174
-112 31 -515 153 -533 160 -12 5 -85 29 -162 54 -148 47 -521 176 -715 246
-63 23 -123 43 -133 45 -9 2 -21 7 -27 10 -5 3 -80 31 -167 62 -87 30 -174 61
-193 69 -422 159 -1453 491 -1612 519 -15 3 -39 10 -53 15 -14 5 -36 12 -48
14 -12 2 -87 20 -167 40 -151 36 -453 98 -595 121 -75 12 -235 35 -290 41 -33
3 -67 8 -77 9 -80 16 -462 24 -573 13z"/>
<path d="M15780 11780 c-121 -42 -410 -123 -488 -136 -15 -3 -43 -9 -62 -14
-62 -16 -337 -64 -435 -76 -22 -2 -56 -6 -75 -9 -19 -2 -66 -7 -105 -11 -38
-3 -81 -8 -95 -9 -48 -6 -315 -18 -377 -18 -58 1 -62 0 -52 -18 15 -28 44 -44
154 -84 233 -85 499 -155 725 -190 19 -3 46 -7 60 -10 14 -2 52 -7 85 -10 33
-4 67 -8 75 -10 78 -19 598 -27 773 -12 197 17 230 23 261 48 14 11 26 30 26
42 0 13 -37 85 -81 162 -45 77 -95 165 -112 195 -67 123 -127 181 -188 179
-19 0 -59 -9 -89 -19z"/>
<path d="M13319 11176 c-2 -2 -24 -7 -49 -11 -78 -11 -378 -97 -460 -132 -8
-3 -17 -7 -20 -8 -6 -2 -12 -4 -145 -55 -93 -36 -182 -73 -345 -146 -112 -50
-438 -219 -538 -279 -551 -330 -951 -638 -1366 -1051 -168 -167 -424 -453
-511 -570 -17 -21 -33 -41 -36 -44 -3 -3 -39 -50 -80 -105 -41 -55 -76 -102
-79 -105 -19 -18 -199 -290 -285 -430 -57 -92 -170 -291 -203 -355 -75 -149
-124 -249 -151 -310 -18 -38 -38 -83 -46 -100 -24 -54 -43 -98 -84 -205 -23
-58 -46 -113 -51 -122 -20 -36 -13 -51 23 -45 64 11 299 57 445 87 53 12 164
34 246 50 82 17 199 41 260 54 61 14 197 44 301 67 105 23 219 48 255 56 89
20 101 22 130 28 19 4 649 160 720 179 8 2 44 11 80 21 326 83 934 266 1295
389 255 86 675 242 762 282 17 8 34 14 37 14 3 0 25 9 49 19 23 11 82 36 130
56 241 98 753 339 942 443 285 158 520 307 730 465 409 308 728 662 927 1032
53 100 124 255 139 308 7 24 5 27 -14 22 -23 -4 -75 -10 -207 -22 -104 -9
-544 -9 -665 0 -149 12 -355 36 -445 53 -14 3 -47 9 -75 14 -106 18 -335 71
-435 101 -58 17 -112 32 -120 34 -88 20 -455 165 -630 248 -125 60 -164 69
-301 73 -69 2 -127 2 -130 0z"/>
<path d="M19790 11063 c-132 -18 -231 -48 -480 -146 -379 -150 -690 -233
-1015 -272 -27 -3 -61 -8 -75 -10 -153 -25 -642 -25 -855 1 -60 7 -234 34
-282 43 -45 9 -54 6 -48 -12 2 -7 6 -41 9 -77 7 -72 8 -79 30 -162 86 -319
400 -723 846 -1087 36 -29 74 -60 85 -69 54 -44 260 -190 363 -258 65 -43 136
-90 160 -105 24 -16 45 -29 46 -29 2 0 33 -18 67 -40 56 -34 118 -71 269 -157
403 -229 945 -489 1435 -687 50 -20 99 -41 110 -46 11 -5 72 -29 135 -53 108
-42 179 -69 403 -151 343 -127 1069 -356 1522 -481 94 -26 199 -55 235 -66 36
-10 135 -37 220 -60 150 -39 170 -44 208 -53 9 -2 62 -16 117 -31 55 -14 108
-28 118 -31 41 -10 58 -14 75 -18 9 -2 157 -39 327 -81 171 -42 318 -79 328
-81 10 -2 27 -6 37 -9 10 -3 29 -8 42 -10 13 -3 61 -14 107 -25 46 -12 85 -19
87 -17 4 3 -15 40 -113 227 -31 58 -80 152 -111 210 -30 58 -69 132 -87 165
-18 33 -63 119 -100 190 -338 650 -512 946 -733 1245 -278 376 -614 718 -1046
1067 -139 112 -475 351 -651 462 -39 25 -99 63 -135 86 -36 23 -92 57 -125 76
-33 19 -68 39 -77 44 -64 38 -140 82 -178 103 -25 14 -65 36 -90 50 -117 66
-376 193 -470 232 -102 41 -264 94 -325 104 -16 3 -41 8 -55 11 -23 4 -114 13
-200 19 -19 1 -78 -4 -130 -11z"/>
<path d="M16579 9953 c-128 -197 -318 -429 -505 -617 -40 -39 -79 -89 -88
-110 -30 -72 -15 -170 45 -288 90 -177 362 -563 470 -665 78 -73 137 -67 223
21 110 114 394 482 479 621 106 173 97 292 -31 431 -141 152 -218 245 -305
365 -36 50 -123 196 -150 252 -25 53 -30 57 -61 57 -31 0 -38 -6 -77 -67z"/>
<path d="M17705 8728 c-22 -29 -45 -60 -52 -68 -14 -17 -126 -162 -160 -206
-12 -16 -31 -40 -42 -54 -11 -14 -66 -83 -121 -155 -131 -169 -120 -154 -161
-206 -94 -116 -72 -176 197 -529 347 -457 786 -898 1224 -1231 47 -35 87 -67
90 -70 15 -19 110 -59 138 -59 70 0 95 27 155 163 114 262 347 906 381 1052 1
6 10 37 20 70 10 33 20 67 22 75 2 8 12 48 23 89 35 129 16 203 -68 262 -36
26 -477 285 -581 342 -30 16 -60 34 -66 38 -27 21 -939 539 -949 539 -6 0 -29
-24 -50 -52z"/>
<path d="M15330 8699 c-41 -22 -136 -72 -210 -111 -74 -39 -157 -83 -185 -98
-50 -28 -258 -139 -435 -232 -52 -28 -128 -68 -167 -89 -40 -22 -108 -58 -150
-80 -43 -23 -109 -58 -148 -79 -38 -21 -101 -54 -140 -75 -80 -42 -102 -60
-120 -95 -27 -52 -26 -78 9 -255 18 -91 101 -395 158 -580 34 -111 150 -438
178 -500 9 -22 29 -70 44 -106 85 -217 132 -251 261 -187 116 58 583 433 814
652 190 182 405 407 526 551 37 44 88 104 114 134 82 96 153 195 173 239 41
92 28 148 -63 281 -35 52 -71 103 -79 115 -103 151 -367 504 -398 533 -39 36
-92 31 -182 -18z"/>
</g>
</svg>
